<svg width="1920" height="151" viewBox="0 0 1920 151" fill="none" xmlns="http://www.w3.org/2000/svg">
<path fill-rule="evenodd" clip-rule="evenodd" d="M475.276 308.082C327.445 299.439 167.361 301.319 43.0912 274.298C-8.10846 263.165 -74.3864 267.475 -143.251 280.755C-214.655 254.284 -206.785 190.686 -177.401 166.162C-131.82 128.118 -99.0392 124.533 22.9998 102.5C138.809 81.5912 338.86 48.5708 490.522 45.5742C654.695 42.3304 1106.78 78.035 1188.5 120.5C1267.71 161.661 845.264 183.639 835.826 225.008C827.269 262.518 1002.55 314.093 902.688 337.102C804.185 359.798 623.576 316.752 475.276 308.082Z" fill="#6EC44B"/>
<path fill-rule="evenodd" clip-rule="evenodd" d="M782.402 94.905C1069.95 95.0274 1380.06 71.0938 1624 113.5C1724.5 130.972 1852.5 113.5 1984.5 76.5C2125.9 124.302 2117.8 261.46 2063.6 317.627C1979.52 404.758 1494.4 388.397 1260.31 450.752C1038.17 509.924 1076.06 633.623 782.402 658.901C464.516 686.263 40.2657 650.582 -122.93 569.815C-281.117 491.528 79.1873 407.383 92.8248 317.627C105.19 236.243 -240.391 147.604 -49.4072 85.9192C138.986 25.0712 493.945 94.7821 782.402 94.905Z" fill="white"/>
</svg>
